<mxfile modified="2022-05-20T05:42:27.316Z" host="app.diagrams.net" agent="5.0 (Windows NT 10.0; Win64; x64) AppleWebKit/537.36 (KHTML, like Gecko) Chrome/101.0.4951.54 Safari/537.36" etag="R7ePYf5bj_n23DrwFB8z" compressed="false" version="18.0.8" type="google">
  <diagram id="a9MqUg8Z-JvZY43gdZP_" name="Command">
    <mxGraphModel grid="1" page="1" gridSize="10" guides="1" tooltips="1" connect="1" arrows="1" fold="1" pageScale="1" pageWidth="827" pageHeight="1169" math="0" shadow="0">
      <root>
        <mxCell id="KSBHCkZp8ORcdQP4AhJz-0" />
        <mxCell id="KSBHCkZp8ORcdQP4AhJz-1" parent="KSBHCkZp8ORcdQP4AhJz-0" />
        <mxCell id="KSBHCkZp8ORcdQP4AhJz-6" style="edgeStyle=orthogonalEdgeStyle;rounded=0;orthogonalLoop=1;jettySize=auto;html=1;endArrow=none;endFill=0;" edge="1" parent="KSBHCkZp8ORcdQP4AhJz-1" source="KSBHCkZp8ORcdQP4AhJz-2" target="KSBHCkZp8ORcdQP4AhJz-5">
          <mxGeometry relative="1" as="geometry" />
        </mxCell>
        <mxCell id="KSBHCkZp8ORcdQP4AhJz-7" style="edgeStyle=orthogonalEdgeStyle;rounded=0;orthogonalLoop=1;jettySize=auto;html=1;entryX=0;entryY=0.5;entryDx=0;entryDy=0;endArrow=ERmany;endFill=0;" edge="1" parent="KSBHCkZp8ORcdQP4AhJz-1" source="KSBHCkZp8ORcdQP4AhJz-2" target="KSBHCkZp8ORcdQP4AhJz-3">
          <mxGeometry relative="1" as="geometry" />
        </mxCell>
        <mxCell id="KSBHCkZp8ORcdQP4AhJz-11" style="edgeStyle=orthogonalEdgeStyle;rounded=0;orthogonalLoop=1;jettySize=auto;html=1;entryX=0.5;entryY=0;entryDx=0;entryDy=0;endArrow=ERmany;endFill=0;" edge="1" parent="KSBHCkZp8ORcdQP4AhJz-1" source="KSBHCkZp8ORcdQP4AhJz-2" target="KSBHCkZp8ORcdQP4AhJz-10">
          <mxGeometry relative="1" as="geometry" />
        </mxCell>
        <mxCell id="KSBHCkZp8ORcdQP4AhJz-21" style="edgeStyle=orthogonalEdgeStyle;rounded=0;orthogonalLoop=1;jettySize=auto;html=1;entryX=1;entryY=0.5;entryDx=0;entryDy=0;endArrow=ERmany;endFill=0;" edge="1" parent="KSBHCkZp8ORcdQP4AhJz-1" source="KSBHCkZp8ORcdQP4AhJz-2" target="KSBHCkZp8ORcdQP4AhJz-19">
          <mxGeometry relative="1" as="geometry" />
        </mxCell>
        <mxCell id="KSBHCkZp8ORcdQP4AhJz-2" value="Command" style="whiteSpace=wrap;html=1;align=center;fillColor=#f5f5f5;strokeColor=#666666;fontColor=#333333;" vertex="1" parent="KSBHCkZp8ORcdQP4AhJz-1">
          <mxGeometry x="360" y="240" width="80" height="40" as="geometry" />
        </mxCell>
        <mxCell id="KSBHCkZp8ORcdQP4AhJz-3" value="Enabled" style="shape=associativeEntity;whiteSpace=wrap;html=1;align=center;" vertex="1" parent="KSBHCkZp8ORcdQP4AhJz-1">
          <mxGeometry x="480" y="240" width="80" height="40" as="geometry" />
        </mxCell>
        <mxCell id="KSBHCkZp8ORcdQP4AhJz-8" style="edgeStyle=orthogonalEdgeStyle;rounded=0;orthogonalLoop=1;jettySize=auto;html=1;entryX=1;entryY=0.5;entryDx=0;entryDy=0;endArrow=ERmany;endFill=0;" edge="1" parent="KSBHCkZp8ORcdQP4AhJz-1" source="KSBHCkZp8ORcdQP4AhJz-4" target="KSBHCkZp8ORcdQP4AhJz-3">
          <mxGeometry relative="1" as="geometry" />
        </mxCell>
        <mxCell id="KSBHCkZp8ORcdQP4AhJz-4" value="Alias" style="whiteSpace=wrap;html=1;align=center;" vertex="1" parent="KSBHCkZp8ORcdQP4AhJz-1">
          <mxGeometry x="600" y="240" width="80" height="40" as="geometry" />
        </mxCell>
        <mxCell id="KSBHCkZp8ORcdQP4AhJz-5" value="Name" style="ellipse;whiteSpace=wrap;html=1;align=center;fontStyle=4;" vertex="1" parent="KSBHCkZp8ORcdQP4AhJz-1">
          <mxGeometry x="360" y="160" width="80" height="40" as="geometry" />
        </mxCell>
        <mxCell id="KSBHCkZp8ORcdQP4AhJz-12" style="edgeStyle=orthogonalEdgeStyle;rounded=0;orthogonalLoop=1;jettySize=auto;html=1;entryX=0.5;entryY=1;entryDx=0;entryDy=0;endArrow=ERmany;endFill=0;" edge="1" parent="KSBHCkZp8ORcdQP4AhJz-1" source="KSBHCkZp8ORcdQP4AhJz-9" target="KSBHCkZp8ORcdQP4AhJz-10">
          <mxGeometry relative="1" as="geometry" />
        </mxCell>
        <mxCell id="KSBHCkZp8ORcdQP4AhJz-32" style="edgeStyle=orthogonalEdgeStyle;rounded=0;orthogonalLoop=1;jettySize=auto;html=1;entryX=0;entryY=0.5;entryDx=0;entryDy=0;endArrow=none;endFill=0;" edge="1" parent="KSBHCkZp8ORcdQP4AhJz-1" source="KSBHCkZp8ORcdQP4AhJz-9" target="KSBHCkZp8ORcdQP4AhJz-17">
          <mxGeometry relative="1" as="geometry" />
        </mxCell>
        <mxCell id="KSBHCkZp8ORcdQP4AhJz-33" style="edgeStyle=orthogonalEdgeStyle;rounded=0;orthogonalLoop=1;jettySize=auto;html=1;entryX=0;entryY=0.5;entryDx=0;entryDy=0;endArrow=none;endFill=0;" edge="1" parent="KSBHCkZp8ORcdQP4AhJz-1" source="KSBHCkZp8ORcdQP4AhJz-9" target="KSBHCkZp8ORcdQP4AhJz-26">
          <mxGeometry relative="1" as="geometry" />
        </mxCell>
        <mxCell id="KSBHCkZp8ORcdQP4AhJz-34" style="edgeStyle=orthogonalEdgeStyle;rounded=0;orthogonalLoop=1;jettySize=auto;html=1;entryX=0;entryY=0.5;entryDx=0;entryDy=0;endArrow=none;endFill=0;" edge="1" parent="KSBHCkZp8ORcdQP4AhJz-1" source="KSBHCkZp8ORcdQP4AhJz-9" target="KSBHCkZp8ORcdQP4AhJz-29">
          <mxGeometry relative="1" as="geometry" />
        </mxCell>
        <mxCell id="KSBHCkZp8ORcdQP4AhJz-35" style="edgeStyle=orthogonalEdgeStyle;rounded=0;orthogonalLoop=1;jettySize=auto;html=1;entryX=0;entryY=0.5;entryDx=0;entryDy=0;endArrow=none;endFill=0;" edge="1" parent="KSBHCkZp8ORcdQP4AhJz-1" source="KSBHCkZp8ORcdQP4AhJz-9" target="KSBHCkZp8ORcdQP4AhJz-28">
          <mxGeometry relative="1" as="geometry" />
        </mxCell>
        <mxCell id="KSBHCkZp8ORcdQP4AhJz-9" value="Argument" style="whiteSpace=wrap;html=1;align=center;" vertex="1" parent="KSBHCkZp8ORcdQP4AhJz-1">
          <mxGeometry x="360" y="400" width="80" height="40" as="geometry" />
        </mxCell>
        <mxCell id="KSBHCkZp8ORcdQP4AhJz-14" style="edgeStyle=orthogonalEdgeStyle;rounded=0;orthogonalLoop=1;jettySize=auto;html=1;entryX=1;entryY=0.5;entryDx=0;entryDy=0;endArrow=none;endFill=0;" edge="1" parent="KSBHCkZp8ORcdQP4AhJz-1" source="KSBHCkZp8ORcdQP4AhJz-10" target="KSBHCkZp8ORcdQP4AhJz-13">
          <mxGeometry relative="1" as="geometry" />
        </mxCell>
        <mxCell id="KSBHCkZp8ORcdQP4AhJz-10" value="Enabled" style="shape=associativeEntity;whiteSpace=wrap;html=1;align=center;" vertex="1" parent="KSBHCkZp8ORcdQP4AhJz-1">
          <mxGeometry x="360" y="320" width="80" height="40" as="geometry" />
        </mxCell>
        <mxCell id="KSBHCkZp8ORcdQP4AhJz-13" value="Order" style="ellipse;whiteSpace=wrap;html=1;align=center;fontStyle=4;" vertex="1" parent="KSBHCkZp8ORcdQP4AhJz-1">
          <mxGeometry x="240" y="320" width="80" height="40" as="geometry" />
        </mxCell>
        <mxCell id="KSBHCkZp8ORcdQP4AhJz-17" value="Name" style="ellipse;whiteSpace=wrap;html=1;align=center;fontStyle=4;" vertex="1" parent="KSBHCkZp8ORcdQP4AhJz-1">
          <mxGeometry x="480" y="340" width="80" height="40" as="geometry" />
        </mxCell>
        <mxCell id="KSBHCkZp8ORcdQP4AhJz-37" style="edgeStyle=orthogonalEdgeStyle;rounded=0;orthogonalLoop=1;jettySize=auto;html=1;entryX=0.5;entryY=1;entryDx=0;entryDy=0;endArrow=none;endFill=0;" edge="1" parent="KSBHCkZp8ORcdQP4AhJz-1" source="KSBHCkZp8ORcdQP4AhJz-19" target="KSBHCkZp8ORcdQP4AhJz-36">
          <mxGeometry relative="1" as="geometry" />
        </mxCell>
        <mxCell id="KSBHCkZp8ORcdQP4AhJz-19" value="Image" style="shape=associativeEntity;whiteSpace=wrap;html=1;align=center;fontFamily=Helvetica;fontSize=12;fontColor=#000000;strokeColor=#000000;fillColor=#ffffff;" vertex="1" parent="KSBHCkZp8ORcdQP4AhJz-1">
          <mxGeometry x="240" y="240" width="80" height="40" as="geometry" />
        </mxCell>
        <mxCell id="KSBHCkZp8ORcdQP4AhJz-24" style="edgeStyle=orthogonalEdgeStyle;rounded=0;orthogonalLoop=1;jettySize=auto;html=1;entryX=0;entryY=0.5;entryDx=0;entryDy=0;endArrow=ERmany;endFill=0;" edge="1" parent="KSBHCkZp8ORcdQP4AhJz-1" source="KSBHCkZp8ORcdQP4AhJz-22" target="KSBHCkZp8ORcdQP4AhJz-19">
          <mxGeometry relative="1" as="geometry" />
        </mxCell>
        <mxCell id="KSBHCkZp8ORcdQP4AhJz-22" value="Media" style="whiteSpace=wrap;html=1;align=center;" vertex="1" parent="KSBHCkZp8ORcdQP4AhJz-1">
          <mxGeometry x="120" y="240" width="80" height="40" as="geometry" />
        </mxCell>
        <mxCell id="KSBHCkZp8ORcdQP4AhJz-25" value="Note:&lt;br&gt;although Commands are presented to users on UX menus, Commands != MenuItems (MenuItems can refer to them)" style="shape=note2;boundedLbl=1;whiteSpace=wrap;html=1;size=25;verticalAlign=middle;align=left;fontStyle=2" vertex="1" parent="KSBHCkZp8ORcdQP4AhJz-1">
          <mxGeometry x="570" y="350" width="110" height="140" as="geometry" />
        </mxCell>
        <mxCell id="KSBHCkZp8ORcdQP4AhJz-26" value="Type" style="ellipse;whiteSpace=wrap;html=1;align=center;fontStyle=4;" vertex="1" parent="KSBHCkZp8ORcdQP4AhJz-1">
          <mxGeometry x="480" y="380" width="80" height="40" as="geometry" />
        </mxCell>
        <mxCell id="KSBHCkZp8ORcdQP4AhJz-28" value="Default Value" style="ellipse;whiteSpace=wrap;html=1;align=center;fontStyle=4;" vertex="1" parent="KSBHCkZp8ORcdQP4AhJz-1">
          <mxGeometry x="480" y="460" width="80" height="40" as="geometry" />
        </mxCell>
        <mxCell id="KSBHCkZp8ORcdQP4AhJz-29" value="Mandatory" style="ellipse;whiteSpace=wrap;html=1;align=center;fontStyle=4;" vertex="1" parent="KSBHCkZp8ORcdQP4AhJz-1">
          <mxGeometry x="480" y="420" width="80" height="40" as="geometry" />
        </mxCell>
        <mxCell id="KSBHCkZp8ORcdQP4AhJz-36" value="Purpose/Size" style="ellipse;whiteSpace=wrap;html=1;align=center;fontStyle=4;" vertex="1" parent="KSBHCkZp8ORcdQP4AhJz-1">
          <mxGeometry x="240" y="160" width="80" height="40" as="geometry" />
        </mxCell>
        <mxCell id="l7R6-TLFAiUn61VaziCV-0" value="&lt;font style=&quot;font-size: 12px&quot;&gt;Diagram:&amp;nbsp; Information - Information Model Part - Base System Module -&lt;br style=&quot;font-size: 12px&quot;&gt;Command Elements&lt;/font&gt;" style="text;strokeColor=none;fillColor=none;html=1;fontSize=12;fontStyle=2;verticalAlign=middle;align=left;shadow=0;glass=0;comic=0;opacity=30;fontColor=#808080;" vertex="1" parent="KSBHCkZp8ORcdQP4AhJz-1">
          <mxGeometry x="120" y="520" width="520" height="20" as="geometry" />
        </mxCell>
      </root>
    </mxGraphModel>
  </diagram>
</mxfile>
